<svg xmlns="http://www.w3.org/2000/svg" xmlns:xlink="http://www.w3.org/1999/xlink" width="500" zoomAndPan="magnify" viewBox="0 0 375 374.999991" height="500" preserveAspectRatio="xMidYMid meet" version="1.0"><defs><g/><clipPath id="1e0dedd399"><path d="M 0.472656 0 L 374.722656 0 L 374.722656 374.25 L 0.472656 374.25 Z M 0.472656 0 " clip-rule="nonzero"/></clipPath></defs><g clip-path="url(#1e0dedd399)"><path fill="#000000" d="M 187.597656 374.25 C 84.449219 374.25 0.472656 290.273438 0.472656 187.125 C 0.472656 83.976562 84.449219 0 187.597656 0 C 290.75 0 374.722656 83.976562 374.722656 187.125 C 374.722656 290.273438 290.75 374.25 187.597656 374.25 Z M 187.597656 2.765625 C 85.925781 2.765625 3.238281 85.449219 3.238281 187.125 C 3.238281 288.800781 85.925781 371.484375 187.597656 371.484375 C 289.273438 371.484375 371.957031 288.800781 371.957031 187.125 C 371.957031 85.449219 289.273438 2.765625 187.597656 2.765625 Z M 187.597656 2.765625 " fill-opacity="1" fill-rule="nonzero"/></g><g fill="#000000" fill-opacity="1"><g transform="translate(158.077041, 260.940968)"><g><path d="M 194.367188 -121.804688 C 194.367188 -104.238281 186.808594 -88.1875 171.691406 -73.644531 C 156.574219 -59.101562 140.160156 -51.832031 122.453125 -51.832031 L 64.140625 -51.832031 L 54.855469 0 L -9.933594 0 L 6.480469 -92.863281 L 112.300781 -92.863281 C 116.046875 -92.863281 119.574219 -94.414062 122.882812 -97.507812 C 126.195312 -100.605469 127.851562 -104.023438 127.851562 -107.765625 C 127.851562 -110.789062 126.773438 -113.382812 124.613281 -115.542969 C 122.453125 -117.699219 119.859375 -118.78125 116.835938 -118.78125 L 11.015625 -118.78125 L 20.734375 -172.773438 L 143.832031 -172.773438 C 157.941406 -172.773438 169.894531 -167.804688 179.683594 -157.871094 C 189.472656 -147.9375 194.367188 -135.914062 194.367188 -121.804688 Z M 194.367188 -121.804688 "/></g></g></g><g fill="#000000" fill-opacity="1"><g transform="translate(47.608482, 253.60399)"><g><path d="M 126.847656 -172.582031 L 98.371094 -10.785156 C 94.34375 12.222656 81.6875 27.757812 60.402344 35.808594 C 47.027344 40.699219 25.960938 43.144531 -2.804688 43.144531 L -4.097656 -10.785156 L 3.882812 -10.785156 C 28.042969 -10.640625 41.417969 -17.832031 44.007812 -32.359375 L 68.601562 -172.582031 Z M 126.847656 -172.582031 "/></g></g></g></svg>